<?xml version="1.0" standalone="no"?>
<!DOCTYPE svg PUBLIC "-//W3C//DTD SVG 20010904//EN"
 "http://www.w3.org/TR/2001/REC-SVG-20010904/DTD/svg10.dtd">
<svg version="1.0" xmlns="http://www.w3.org/2000/svg"
 width="400.000000pt" height="400.000000pt" viewBox="0 0 400.000000 400.000000"
 preserveAspectRatio="xMidYMid meet">
<metadata>
Created by potrace 1.14, written by Peter Selinger 2001-2017
</metadata>
<g transform="translate(0.000000,400.000000) scale(0.100000,-0.100000)"
fill="#000000" stroke="none">
<path d="M3060 2585 c-15 -18 -10 -25 37 -58 35 -24 41 -25 75 -14 21 8 41 16
44 20 6 6 -117 67 -135 67 -5 0 -14 -7 -21 -15z"/>
<path d="M835 2518 c-11 -6 -38 -23 -60 -37 l-40 -25 30 -7 c17 -3 37 -9 45
-13 19 -8 94 57 88 76 -6 17 -38 20 -63 6z"/>
<path d="M3155 2420 c-12 -19 6 -50 43 -75 20 -14 42 -25 48 -25 15 0 94 51
94 61 0 4 -24 10 -54 13 -30 4 -62 14 -72 21 -22 17 -50 19 -59 5z"/>
<path d="M746 2340 c-16 -10 -47 -22 -68 -25 -21 -4 -40 -10 -43 -15 -2 -4 14
-20 37 -35 l42 -28 36 20 c45 26 73 64 64 86 -8 22 -31 21 -68 -3z"/>
<path d="M1446 2272 c-4 -12 -14 -65 -21 -118 -11 -77 -22 -113 -63 -197 -27
-56 -53 -113 -57 -127 -4 -14 -11 -27 -14 -30 -4 -3 -22 -26 -41 -52 -18 -27
-37 -48 -42 -48 -4 0 -8 -4 -8 -10 0 -5 -16 -30 -35 -56 -19 -25 -35 -42 -35
-38 0 5 -5 3 -11 -3 -8 -8 -20 -7 -45 5 -27 13 -34 22 -31 40 5 27 -3 28 -36
2 -14 -11 -30 -20 -35 -20 -6 0 -12 -4 -14 -10 -1 -5 -13 -7 -24 -4 -20 5 -22
15 -29 110 -4 57 -4 123 0 146 l6 43 -28 -32 c-15 -17 -39 -45 -53 -62 -14
-18 -33 -31 -46 -31 -13 0 -26 -4 -29 -10 -3 -5 -9 -10 -13 -10 -13 0 -42 79
-42 113 0 43 -18 62 -39 43 -24 -20 -101 -31 -102 -14 -1 27 -38 -99 -49 -167
-14 -87 -32 -103 -71 -64 -11 11 -26 18 -32 16 -13 -4 -42 21 -42 37 -1 6 5
21 13 33 8 12 19 70 25 128 6 58 13 105 16 105 4 0 22 -20 41 -45 57 -73 94
-47 75 53 -6 35 -7 35 -19 11 -6 -13 -20 -24 -31 -24 -17 0 -76 65 -88 97 -9
26 -18 -1 -31 -91 -14 -92 -35 -141 -60 -141 -15 0 -28 -32 -77 -190 -70 -224
-120 -492 -140 -757 -7 -90 -15 -160 -18 -158 -10 10 1 314 15 425 30 239 77
452 134 614 17 50 30 104 28 120 -3 30 -4 29 -31 -25 -15 -31 -36 -64 -47 -74
-19 -17 -22 -17 -37 -2 -15 15 -18 14 -35 -14 -10 -17 -36 -73 -58 -126 l-40
-95 0 -784 0 -784 179 0 c134 0 181 3 184 13 4 10 6 10 6 0 1 -10 74 -13 331
-13 299 0 330 2 330 16 0 9 -5 45 -12 80 -10 56 -14 64 -34 64 -40 0 -74 19
-188 104 -96 71 -117 92 -143 142 -41 78 -53 127 -55 222 -1 95 24 151 79 177
32 16 36 16 55 -2 l20 -18 -17 40 c-27 63 -45 117 -55 159 l-9 40 78 80 c43
45 132 144 197 222 65 77 133 156 149 176 17 19 39 40 50 45 24 13 240 73 260
73 8 0 15 5 15 10 0 6 -6 10 -14 10 -12 0 -132 -30 -225 -56 -34 -10 -29 -1
80 152 52 72 109 158 128 192 19 34 38 59 43 56 4 -3 8 -22 8 -42 0 -101 58
-349 121 -516 42 -111 116 -266 144 -301 l16 -20 -5 20 c-20 78 -17 79 29 7
26 -40 49 -71 52 -68 2 2 -9 46 -26 98 -32 97 -61 205 -61 223 0 5 18 -31 39
-81 71 -171 140 -275 168 -253 7 6 13 22 13 35 0 26 14 32 24 12 3 -7 4 6 2
30 -3 35 -1 42 10 38 8 -3 14 -1 14 5 0 7 13 9 35 5 20 -4 35 -3 35 2 0 14 39
22 47 9 3 -6 9 -38 12 -71 6 -57 8 -61 33 -64 34 -4 40 10 58 121 7 43 14 76
16 74 2 -2 8 -37 14 -78 17 -121 28 -138 37 -57 3 24 10 54 17 68 9 22 11 14
14 -53 2 -68 5 -78 20 -75 13 2 20 22 29 84 17 125 21 127 22 17 0 -56 5 -104
10 -108 23 -13 40 64 66 290 25 216 26 217 58 82 21 -86 26 -119 18 -129 -42
-49 -51 -63 -51 -79 0 -9 -3 -24 -6 -33 -5 -12 3 -12 45 5 40 15 51 16 51 6 0
-8 -9 -22 -19 -31 -11 -10 -22 -30 -26 -44 -3 -15 -9 -36 -12 -47 -5 -18 -4
-18 18 -4 41 27 69 29 90 8 25 -25 24 -35 -7 -65 -20 -21 -33 -25 -65 -22 -30
3 -39 0 -40 -12 -3 -47 4 -116 14 -139 10 -25 11 -25 14 -4 3 16 14 23 44 28
37 6 43 4 84 -34 39 -36 50 -41 93 -41 53 0 116 27 139 60 8 11 18 20 22 20
12 0 24 -49 22 -83 -3 -29 7 -35 27 -15 7 7 12 8 12 4 0 -5 7 -3 15 4 23 19
19 -9 -5 -40 -25 -31 -26 -60 -2 -60 25 0 61 62 79 138 9 37 21 70 26 74 6 3
7 26 4 53 -10 73 14 52 43 -38 14 -42 34 -83 44 -90 18 -13 19 -23 13 -146 -7
-132 -8 -134 -58 -248 -28 -63 -49 -116 -47 -118 2 -2 24 42 48 97 l45 102 3
-55 c3 -49 -21 -328 -35 -407 l-5 -32 431 0 431 1 0 429 c0 500 -7 573 -90
931 -66 284 -176 601 -208 598 -10 -1 -22 -1 -29 0 -14 1 -38 73 -54 164 -7
37 -15 67 -19 67 -3 0 -14 -15 -24 -32 -47 -83 -89 -101 -108 -46 -10 28 -12
30 -19 12 -9 -23 -11 -107 -3 -128 3 -9 18 -16 33 -16 22 -1 24 -2 10 -13 -9
-7 -14 -18 -11 -25 3 -9 -3 -13 -19 -11 -13 2 -29 0 -36 -4 -7 -4 -26 10 -48
38 -49 59 -69 59 -73 -1 -1 -25 2 -63 8 -85 7 -26 8 -45 1 -57 -8 -15 -12 -12
-25 20 -22 51 -36 57 -36 14 0 -32 -3 -36 -25 -36 -17 0 -25 -6 -25 -17 0 -25
-47 -26 -71 -2 -25 25 -49 24 -49 -1 0 -11 -7 -20 -15 -20 -8 0 -15 5 -15 10
0 6 -12 0 -27 -14 -15 -14 -30 -23 -35 -20 -4 3 -8 0 -8 -5 0 -6 -4 -11 -8
-11 -5 0 -21 44 -37 98 -15 53 -32 104 -36 112 -10 18 -11 11 -13 -104 -1 -75
-2 -79 -23 -81 -13 -1 -23 2 -23 7 0 4 -4 8 -10 8 -5 0 -10 -10 -10 -22 0 -33
-17 -57 -28 -40 -7 10 -12 8 -26 -7 -9 -10 -16 -22 -14 -27 3 -9 -4 -14 -21
-14 -5 0 -14 13 -21 30 -13 31 -70 69 -70 47 0 -8 -3 -7 -9 2 -5 7 -14 10 -20
7 -6 -4 -11 -1 -11 7 0 7 -11 24 -25 37 l-25 23 -1 -29 c-1 -16 -1 -36 0 -46
1 -9 -3 -19 -9 -23 -5 -3 -10 -2 -10 3 0 5 -11 21 -24 35 -17 18 -26 43 -31
86 -4 34 -11 63 -15 66 -13 8 -26 -23 -34 -76 -6 -39 -10 -45 -29 -45 -16 1
-28 -10 -44 -42 -12 -24 -27 -50 -33 -58 -14 -16 -70 -20 -70 -4 0 5 -10 18
-22 30 l-22 20 -13 -22 c-7 -13 -12 -31 -13 -41 0 -14 -8 -17 -42 -16 -24 0
-64 -6 -91 -14 -26 -8 -56 -13 -66 -10 -10 3 -22 0 -25 -6 -14 -21 -35 -10
-57 29 -25 43 -34 49 -43 24 -3 -8 -10 -13 -15 -10 -5 3 -14 -1 -21 -9 -30
-36 -88 -11 -167 73 l-32 33 -12 -40 c-11 -38 -13 -39 -33 -25 -31 19 -82 127
-95 198 -6 33 -11 116 -12 185 0 69 -4 144 -8 166 -6 35 -8 37 -15 17z m1134
-1341 c0 -12 -20 -25 -27 -18 -7 7 6 27 18 27 5 0 9 -4 9 -9z"/>
<path d="M2801 2280 c0 -8 4 -24 9 -35 5 -13 9 -14 9 -5 0 8 -4 24 -9 35 -5
13 -9 14 -9 5z"/>
<path d="M3445 2270 c-11 -5 -48 -9 -82 -9 -42 -1 -67 -6 -77 -17 -32 -32 -15
-58 47 -69 42 -8 127 11 131 29 2 6 8 26 14 44 11 34 5 38 -33 22z"/>
<path d="M3911 2267 c2 -1 12 -9 22 -16 14 -12 17 -11 17 3 0 10 -8 16 -22 16
-12 0 -19 -1 -17 -3z"/>
<path d="M503 2155 c17 -58 77 -78 158 -53 31 9 39 16 39 34 0 32 -16 39 -90
39 -36 0 -77 4 -92 8 l-27 9 12 -37z"/>
<path d="M1033 2128 c-20 -34 -35 -78 -26 -78 9 0 28 26 50 68 26 52 5 60 -24
10z"/>
<path d="M3747 2027 c-4 -10 19 -83 58 -180 83 -212 146 -457 175 -682 7 -49
13 -97 15 -105 1 -8 3 144 4 338 l1 354 -39 81 c-22 45 -47 91 -55 102 -16 20
-16 20 -22 -3 -14 -49 -55 -17 -120 93 -10 17 -11 17 -17 2z"/>
<path d="M33 1993 l-33 -17 0 -148 c0 -81 2 -148 4 -148 2 0 11 19 19 43 8 23
22 59 32 81 14 33 14 38 1 33 -40 -16 -38 53 5 129 28 51 26 53 -28 27z"/>
<path d="M3957 1963 c-10 -3 -17 -8 -15 -11 2 -4 15 -29 28 -57 l25 -50 3 49
c3 51 -2 77 -15 75 -4 -1 -16 -3 -26 -6z"/>
<path d="M1266 1274 c-32 -8 -90 -31 -128 -51 -70 -36 -178 -125 -178 -146 0
-5 -14 -32 -30 -58 -34 -51 -54 -143 -39 -171 14 -27 21 -22 53 35 32 58 87
136 98 137 4 0 3 -14 -2 -30 l-9 -31 30 26 c54 44 120 26 100 -27 -15 -39 -60
-70 -98 -66 -17 1 -34 0 -37 -3 -9 -9 22 -136 43 -175 33 -62 55 -86 74 -79
15 6 14 11 -8 43 -14 20 -25 42 -25 49 0 15 16 17 25 3 13 -21 33 4 39 51 4
27 9 49 12 49 2 0 23 -12 47 -27 73 -47 160 -33 207 33 25 34 39 38 82 19 26
-10 38 31 38 128 0 60 -6 94 -20 126 -25 53 -25 54 0 46 17 -5 20 -2 20 22 0
32 -38 75 -80 91 -49 18 -153 21 -214 6z m188 -132 c7 -12 -31 -29 -76 -35
-44 -7 -53 1 -31 25 17 19 97 26 107 10z"/>
<path d="M2520 795 c0 -5 5 -17 10 -25 5 -8 10 -10 10 -5 0 6 -5 17 -10 25 -5
8 -10 11 -10 5z"/>
<path d="M743 734 c20 -11 26 -20 22 -34 -5 -15 -2 -17 15 -13 11 3 20 8 20
12 0 17 -27 39 -55 45 l-30 6 28 -16z"/>
<path d="M788 631 c-27 -25 -39 -59 -18 -46 6 3 10 -1 10 -9 0 -27 20 -18 31
14 6 17 14 30 18 30 5 0 32 -52 61 -115 29 -63 55 -113 57 -111 6 5 -119 266
-126 265 -3 -1 -18 -13 -33 -28z"/>
<path d="M822 483 c-6 -13 -3 -23 10 -35 17 -17 18 -17 18 17 0 37 -14 46 -28
18z"/>
<path d="M950 375 c0 -9 30 -65 35 -65 7 0 -16 60 -26 66 -5 3 -9 2 -9 -1z"/>
<path d="M990 295 c0 -5 5 -17 10 -25 5 -8 10 -10 10 -5 0 6 -5 17 -10 25 -5
8 -10 11 -10 5z"/>
<path d="M1046 177 c3 -10 9 -15 12 -12 3 3 0 11 -7 18 -10 9 -11 8 -5 -6z"/>
</g>
</svg>
